# xmcd
#
# Track frame offsets: 
#        150
#        12885
#        24655
#        37217
#        54905
#        68205
#        80130
#        94300
#        111475
#        126007
#
# Disc length: 1820 seconds
#
# Revision: 2
# Processed by: cddbd v1.5PL3 Copyright (c) Steve Scherf et al.
# Submitted via: ExactAudioCopy v0.90b4
#
DISCID=89071a0a
DTITLE=Stonewall Jackson - Waterloo
DYEAR=1900
DGENRE=Country
TTITLE0=I'm Just An Old Chunk Of Coal (But I'm Gonna Be A Diamond Some
TTITLE0=day)
TTITLE1=Full Moon, Empty Pockets
TTITLE2=There's No Shortcuts (To Get Me Over You)
TTITLE3=Breaking Up Break Down
TTITLE4=Let The Sun Shine On The People
TTITLE5=Waterloo
TTITLE6=Don't Be Angry
TTITLE7=I Washed My Hands In Muddy Water
TTITLE8=A Wound Time Cannot Erase
TTITLE9=Why I'm Walkin'
EXTD=
EXTT0=
EXTT1=
EXTT2=
EXTT3=
EXTT4=
EXTT5=
EXTT6=
EXTT7=
EXTT8=
EXTT9=
PLAYORDER=
